<?xml version="1.0" standalone="no"?>
<!DOCTYPE svg PUBLIC "-//W3C//DTD SVG 20010904//EN"
 "http://www.w3.org/TR/2001/REC-SVG-20010904/DTD/svg10.dtd">
<svg version="1.0" xmlns="http://www.w3.org/2000/svg"
 width="500.000000pt" height="500.000000pt" viewBox="0 0 500.000000 500.000000"
 preserveAspectRatio="xMidYMid meet">
<metadata>
Created by potrace 1.14, written by Peter Selinger 2001-2017
</metadata>
<g transform="translate(0.000000,500.000000) scale(0.100000,-0.100000)"
fill="#000000" stroke="none">
<path d="M2393 4626 c-104 -34 -194 -114 -241 -214 -24 -50 -27 -69 -27 -162
0 -90 3 -112 23 -152 57 -116 171 -198 305 -220 159 -26 323 65 396 221 22 49
26 69 26 151 -1 122 -25 188 -100 268 -77 84 -145 115 -254 119 -54 2 -102 -2
-128 -11z"/>
<path d="M1350 4363 c-35 -24 -40 -33 -40 -76 0 -54 8 -65 107 -148 413 -344
703 -668 922 -1028 l50 -83 -24 -48 c-83 -164 -177 -439 -218 -640 -76 -369
-66 -768 29 -1145 56 -225 146 -460 271 -708 l65 -130 53 134 c29 74 77 193
108 266 97 230 166 470 204 713 14 90 18 172 18 375 -1 284 -14 393 -76 630
-44 170 -129 398 -195 528 -14 25 -13 31 13 75 75 130 209 318 342 477 110
133 386 404 547 538 77 64 146 128 152 142 34 74 -11 145 -92 145 -41 0 -52
-6 -118 -61 -379 -316 -726 -700 -908 -1006 -24 -40 -47 -73 -51 -73 -4 0 -26
30 -50 68 -177 282 -530 668 -897 984 -94 81 -106 88 -145 88 -24 0 -54 -8
-67 -17z m1215 -1734 c94 -288 128 -499 127 -799 0 -222 -19 -394 -68 -600
-32 -139 -105 -370 -115 -365 -11 7 -66 163 -104 296 -112 386 -125 806 -39
1184 33 144 129 425 146 425 4 0 28 -63 53 -141z"/>
</g>
</svg>
