<svg width="823" height="1500" viewBox="0 0 823 1500" fill="none" xmlns="http://www.w3.org/2000/svg">
<g clip-path="url(#clip0_1_86)">
<g clip-path="url(#clip1_1_86)">
<path d="M2000 0H0V1500H2000V0Z" fill="#EBB6BE"/>
<path d="M-0.000244141 3000C1656.85 3000 3000 1656.85 3000 -0.000244141C3000 -1656.85 1656.85 -3000 -0.000244141 -3000C-1656.85 -3000 -3000 -1656.85 -3000 -0.000244141C-3000 1656.85 -1656.85 3000 -0.000244141 3000Z" fill="url(#paint0_radial_1_86)"/>
<g opacity="0.5">
<path d="M-0.000244141 2000C1104.57 2000 2000 1104.57 2000 -0.000244141C2000 -1104.57 1104.57 -2000 -0.000244141 -2000C-1104.57 -2000 -2000 -1104.57 -2000 -0.000244141C-2000 1104.57 -1104.57 2000 -0.000244141 2000Z" fill="url(#paint1_radial_1_86)"/>
<path d="M-0.000244141 1800C994.112 1800 1800 994.112 1800 -0.000244141C1800 -994.113 994.112 -1800 -0.000244141 -1800C-994.113 -1800 -1800 -994.113 -1800 -0.000244141C-1800 994.112 -994.113 1800 -0.000244141 1800Z" fill="url(#paint2_radial_1_86)"/>
<path d="M-0.000244141 1700C938.884 1700 1700 938.884 1700 -0.000244141C1700 -938.884 938.884 -1700 -0.000244141 -1700C-938.884 -1700 -1700 -938.884 -1700 -0.000244141C-1700 938.884 -938.884 1700 -0.000244141 1700Z" fill="url(#paint3_radial_1_86)"/>
<path d="M-0.000244141 1651C911.822 1651 1651 911.822 1651 -0.000244141C1651 -911.822 911.822 -1651 -0.000244141 -1651C-911.822 -1651 -1651 -911.822 -1651 -0.000244141C-1651 911.822 -911.822 1651 -0.000244141 1651Z" fill="url(#paint4_radial_1_86)"/>
<path d="M-0.000244141 1450C800.813 1450 1450 800.813 1450 -0.000244141C1450 -800.813 800.813 -1450 -0.000244141 -1450C-800.813 -1450 -1450 -800.813 -1450 -0.000244141C-1450 800.813 -800.813 1450 -0.000244141 1450Z" fill="url(#paint5_radial_1_86)"/>
<path d="M-0.000244141 1250C690.356 1250 1250 690.356 1250 -0.000244141C1250 -690.356 690.356 -1250 -0.000244141 -1250C-690.356 -1250 -1250 -690.356 -1250 -0.000244141C-1250 690.356 -690.356 1250 -0.000244141 1250Z" fill="url(#paint6_radial_1_86)"/>
<path d="M-0.000244141 1175C648.934 1175 1175 648.934 1175 -0.000244141C1175 -648.935 648.934 -1175 -0.000244141 -1175C-648.935 -1175 -1175 -648.935 -1175 -0.000244141C-1175 648.934 -648.935 1175 -0.000244141 1175Z" fill="url(#paint7_radial_1_86)"/>
<path d="M-0.000244141 900C497.056 900 900 497.056 900 -0.000244141C900 -497.057 497.056 -900 -0.000244141 -900C-497.057 -900 -900 -497.057 -900 -0.000244141C-900 497.056 -497.057 900 -0.000244141 900Z" fill="url(#paint8_radial_1_86)"/>
<path d="M-0.000244141 750C414.213 750 750 414.213 750 -0.000244141C750 -414.214 414.213 -750 -0.000244141 -750C-414.214 -750 -750 -414.214 -750 -0.000244141C-750 414.213 -414.214 750 -0.000244141 750Z" fill="url(#paint9_radial_1_86)"/>
<path d="M-0.000244141 500C276.142 500 500 276.142 500 -0.000244141C500 -276.143 276.142 -500 -0.000244141 -500C-276.143 -500 -500 -276.143 -500 -0.000244141C-500 276.142 -276.143 500 -0.000244141 500Z" fill="url(#paint10_radial_1_86)"/>
<path d="M-0.000244141 380C209.868 380 380 209.868 380 -0.000244141C380 -209.868 209.868 -380 -0.000244141 -380C-209.868 -380 -380 -209.868 -380 -0.000244141C-380 209.868 -209.868 380 -0.000244141 380Z" fill="url(#paint11_radial_1_86)"/>
<path d="M-0.000244141 250C138.071 250 250 138.071 250 -0.000244141C250 -138.071 138.071 -250 -0.000244141 -250C-138.071 -250 -250 -138.071 -250 -0.000244141C-250 138.071 -138.071 250 -0.000244141 250Z" fill="url(#paint12_radial_1_86)"/>
</g>
<path d="M57.7642 176.81C46.3678 180.269 34.6532 182.642 22.8429 183.876C11.0285 185.099 -0.870275 185.177 -12.6484 184.113C-24.4266 183.049 -36.0728 180.839 -47.38 177.561C-58.6913 174.271 -69.6523 169.909 -80.0825 164.549C-90.5127 159.189 -100.408 152.843 -109.594 145.638C-118.784 138.422 -127.254 130.344 -134.852 121.539C-142.449 112.735 -149.186 103.208 -154.927 93.1537C-160.676 83.0763 -165.426 72.482 -169.145 61.5634C-164.964 72.3137 -159.773 82.6455 -153.642 92.367C-147.523 102.093 -140.468 111.197 -132.625 119.516C-124.779 127.847 -116.145 135.393 -106.899 142.027C-97.6483 148.671 -87.7696 154.411 -77.4667 159.14C-67.1597 163.881 -56.4131 167.619 -45.4527 170.296C-34.4768 172.979 -23.2757 174.598 -12.04 175.119C-0.804399 175.639 10.4473 175.081 21.5255 173.45C32.6036 171.819 43.4928 169.107 54.0208 165.403C57.1454 164.304 60.4646 166.02 61.5635 169.144C62.6625 172.269 61.1369 175.621 58.001 176.724C57.9221 176.753 57.8544 176.777 57.7714 176.795L57.7642 176.81Z" fill="url(#paint13_linear_1_86)"/>
<path d="M287.625 115.669C279.831 133.924 270.312 151.424 259.234 167.824C248.138 184.218 235.491 199.493 221.515 213.391C207.538 227.289 192.24 239.791 175.941 250.715C159.623 261.632 142.311 270.953 124.293 278.528C106.276 286.102 87.5726 291.937 68.5329 295.947C49.4745 299.95 30.0867 302.109 10.7064 302.377C-8.67391 302.645 -28.0537 301.04 -47.0416 297.598C-66.0671 294.142 -84.682 288.857 -102.606 281.907C-84.4016 288.086 -65.6497 292.528 -46.6701 295.115C-27.6973 297.722 -8.51547 298.467 10.508 297.367C29.5502 296.274 48.4341 293.335 66.8093 288.637C85.2033 283.945 103.114 277.481 120.19 269.394C137.285 261.313 153.57 251.597 168.73 240.471C183.915 229.333 197.981 216.766 210.683 202.979C223.384 189.191 234.726 174.228 244.511 158.336C254.297 142.445 262.5 125.637 269.05 108.227C270.994 103.06 276.741 100.661 281.908 102.606C287.074 104.55 289.719 110.089 287.768 115.274C287.72 115.406 287.679 115.519 287.613 115.643L287.625 115.669Z" fill="url(#paint14_linear_1_86)"/>
<path d="M239.07 304.981C219.223 319.872 197.981 332.866 175.739 343.697C153.481 354.508 130.243 363.14 106.427 369.45C82.6109 375.759 58.2364 379.731 33.7644 381.37C9.27628 382.99 -15.2902 382.26 -39.5285 379.199C-63.7668 376.138 -87.6609 370.764 -110.778 363.205C-133.911 355.627 -156.249 345.847 -177.396 334.024C-198.543 322.202 -218.519 308.352 -236.923 292.758C-255.359 277.127 -272.207 259.771 -287.267 241.045C-271.422 259.112 -253.898 275.64 -234.969 290.303C-216.059 304.982 -195.76 317.778 -174.479 328.477C-153.182 339.195 -130.903 347.816 -108.075 354.214C-85.2305 360.632 -61.8014 364.829 -38.2616 366.746C-14.7057 368.683 8.9961 368.343 32.3606 365.773C55.7604 363.207 78.8421 358.394 101.209 351.408C123.576 344.421 145.206 335.311 165.731 324.224C186.256 313.137 205.641 300.069 223.613 285.315C228.947 280.938 236.667 281.932 241.045 287.266C245.423 292.6 244.825 300.249 239.472 304.643C239.338 304.756 239.223 304.852 239.073 304.945L239.07 304.981Z" fill="url(#paint15_linear_1_86)"/>
<path d="M460.387 -65.4601C463.954 -35.9005 464.713 -6.0284 462.624 23.5843C460.504 53.2023 455.532 82.5313 447.8 111.068C440.067 139.604 429.57 167.318 416.59 193.733C403.58 220.153 388.082 245.246 370.358 268.598C352.634 291.951 332.713 313.558 310.987 333.047C289.232 352.541 265.666 369.887 240.691 384.77C215.716 399.653 189.337 412.102 162.09 421.872C134.783 431.653 106.638 438.748 78.1415 443.163C106.424 437.537 134.115 429.242 160.71 418.369C187.311 407.525 212.789 394.107 236.676 378.41C260.593 362.709 282.92 344.729 303.266 324.843C323.641 304.953 342.06 283.123 358.177 259.81C374.323 236.492 388.191 211.657 399.539 185.834C410.912 159.976 419.76 133.101 425.919 105.665C432.078 78.2286 435.589 50.2844 436.382 22.3016C437.175 -5.6812 435.226 -33.6679 430.676 -61.1961C429.327 -69.3659 434.993 -76.7927 443.163 -78.1419C451.333 -79.4911 458.923 -74.2799 460.278 -66.0806C460.314 -65.8737 460.345 -65.6965 460.352 -65.4845L460.387 -65.4601Z" fill="url(#paint16_linear_1_86)"/>
<path d="M589.368 -192.548C600.896 -154.56 608.808 -115.511 612.921 -76.1436C616.996 -36.7624 617.257 2.90024 613.711 42.1607C610.165 81.4212 602.798 120.242 591.87 157.933C580.905 195.637 566.364 232.174 548.498 266.941C530.631 301.708 509.477 334.693 485.461 365.313C461.408 395.947 434.48 424.18 405.132 449.505C375.784 474.83 344.029 497.285 310.513 516.422C276.922 535.587 241.607 551.42 205.212 563.815C241.046 549.879 275.486 532.576 307.891 512.141C340.309 491.743 370.656 468.225 398.387 442.084C426.156 415.929 451.311 387.15 473.422 356.329C495.572 325.494 514.703 292.565 530.468 258.222C546.27 223.865 558.73 188.043 567.652 151.508C576.599 114.922 581.994 77.5849 583.729 40.1328C585.465 2.68065 583.605 -34.8251 578.167 -71.7523C572.729 -108.679 563.69 -144.977 551.342 -180.07C547.679 -190.485 553.4 -201.549 563.815 -205.212C574.231 -208.875 585.404 -203.79 589.081 -193.337C589.176 -193.074 589.258 -192.849 589.317 -192.572L589.368 -192.548Z" fill="url(#paint17_linear_1_86)"/>
<path d="M657.923 409.643C630.81 451.205 599.776 490.156 565.384 525.726C530.948 561.27 493.179 593.388 452.736 621.538C412.293 649.688 369.2 673.826 324.329 693.645C279.414 713.44 232.745 728.873 185.098 739.7C137.451 750.527 88.8695 756.773 40.2527 758.38C-8.40748 759.962 -57.0778 756.861 -104.909 749.107C-152.74 741.352 -199.756 728.987 -245.011 712.271C-290.352 695.504 -333.888 674.41 -375 649.519C-332.863 672.634 -288.623 691.71 -243.018 706.32C-197.438 720.973 -150.536 731.135 -103.222 736.686C-55.8654 742.261 -8.09727 743.224 39.1826 739.633C86.5058 736.067 133.409 727.928 178.961 715.43C224.556 702.956 268.869 686.105 311.022 665.293C353.244 644.463 393.331 619.63 430.588 591.199C467.845 562.769 502.264 530.853 533.255 495.975C564.245 461.098 591.739 423.278 615.422 383.258C622.452 371.381 637.643 367.97 649.519 375C661.395 382.03 665.503 396.814 658.448 408.734C658.273 409.037 658.123 409.297 657.905 409.575L657.923 409.643Z" fill="url(#paint18_linear_1_86)"/>
<path d="M288.822 884.052C231.839 901.343 173.266 913.212 114.215 919.381C55.143 925.494 -4.3509 925.885 -63.2416 920.566C-122.132 915.247 -180.363 904.197 -236.899 887.805C-293.456 871.357 -348.261 849.546 -400.412 822.746C-452.563 795.947 -502.04 764.215 -547.97 728.192C-593.922 692.112 -636.27 651.72 -674.258 607.698C-712.245 563.676 -745.928 516.043 -774.634 465.769C-803.38 415.383 -827.13 362.411 -845.723 307.818C-824.819 361.57 -798.865 413.228 -768.212 461.836C-737.615 510.463 -702.339 555.983 -663.127 597.581C-623.894 639.235 -580.726 676.966 -534.494 710.134C-488.241 743.358 -438.847 772.055 -387.333 795.702C-335.798 819.405 -282.065 838.095 -227.263 851.478C-172.383 864.898 -116.378 872.991 -60.1997 875.594C-4.02152 878.197 52.2371 875.407 107.628 867.25C163.019 859.094 217.465 845.534 270.105 827.013C285.727 821.519 302.323 830.1 307.818 845.723C313.313 861.346 305.685 878.105 290.006 883.621C289.611 883.764 289.273 883.887 288.857 883.975L288.822 884.052Z" fill="url(#paint19_linear_1_86)"/>
<path d="M1006.69 404.842C979.408 468.735 946.091 529.984 907.32 587.385C868.484 644.763 824.218 698.227 775.301 746.87C726.385 795.513 672.84 839.269 615.793 877.503C558.68 915.714 498.088 948.337 435.027 974.848C371.967 1001.36 306.504 1021.78 239.865 1035.82C173.161 1049.83 105.304 1057.38 37.4727 1058.32C-30.3585 1059.26 -98.1877 1053.64 -164.645 1041.59C-231.235 1029.5 -296.387 1011 -359.121 986.677C-295.405 1008.3 -229.774 1023.85 -163.345 1032.9C-96.9404 1042.03 -29.8039 1044.64 36.7781 1040.79C103.426 1036.96 169.52 1026.67 233.833 1010.23C298.212 993.808 360.9 971.184 420.666 942.878C480.497 914.596 537.495 880.59 590.554 841.649C643.702 802.665 692.935 758.681 737.39 710.426C781.845 662.17 821.541 609.799 855.79 554.178C890.039 498.558 918.751 439.73 941.674 378.795C948.479 360.712 968.594 352.316 986.677 359.121C1004.76 365.926 1014.02 385.312 1007.19 403.46C1007.02 403.921 1006.88 404.315 1006.64 404.752L1006.69 404.842Z" fill="url(#paint20_linear_1_86)"/>
<path d="M1141.82 -609.478C1179.29 -535.561 1209.71 -458.153 1232.43 -378.713C1255.09 -299.23 1270 -217.787 1276.94 -135.791C1283.88 -53.7941 1282.81 28.6834 1274.01 110.129C1265.13 191.616 1248.48 271.998 1224.36 349.949C1200.23 427.899 1168.7 503.377 1130.43 575.031C1092.08 646.727 1046.96 714.528 995.807 777.23C944.653 839.931 887.511 897.604 825.547 949.096C763.437 1000.67 696.578 1046.02 626.25 1084.7C694.866 1043.06 759.394 995.003 818.604 941.245C877.855 887.56 931.717 828.212 979.251 764.419C1026.86 700.584 1068.14 632.303 1102.42 560.925C1136.78 489.506 1164.17 414.875 1184.13 338.559C1204.16 262.201 1216.79 184.042 1221.89 105.7C1227.02 27.2437 1224.58 -51.469 1214.57 -129.092C1204.56 -206.714 1187.14 -283.144 1162.58 -357.087C1138.01 -431.03 1106.27 -502.373 1068.17 -570.042C1056.86 -590.125 1064.61 -614.944 1084.7 -626.25C1104.78 -637.556 1129.59 -631.152 1140.94 -610.996C1141.23 -610.49 1141.48 -610.056 1141.7 -609.508L1141.82 -609.478Z" fill="url(#paint21_linear_1_86)"/>
<path d="M860.651 1097.93C789.203 1151.54 712.731 1198.32 632.661 1237.31C552.533 1276.23 468.875 1307.3 383.137 1330.02C297.399 1352.73 209.651 1367.03 121.552 1372.93C33.3949 1378.76 -55.0445 1376.14 -142.302 1365.12C-229.56 1354.1 -315.579 1334.75 -398.801 1307.54C-482.081 1280.26 -562.495 1245.05 -638.625 1202.49C-714.755 1159.93 -786.668 1110.07 -852.922 1053.93C-919.292 997.657 -979.944 935.175 -1034.16 867.763C-977.118 932.803 -914.033 992.303 -845.889 1045.09C-777.813 1097.94 -704.737 1144 -628.126 1182.52C-551.456 1221.1 -471.252 1252.14 -389.07 1275.17C-306.83 1298.27 -222.485 1313.38 -137.741 1320.29C-52.9402 1327.26 32.3863 1326.04 116.499 1316.78C200.738 1307.55 283.832 1290.22 364.352 1265.07C444.873 1239.92 522.741 1207.12 596.631 1167.21C670.522 1127.29 740.31 1080.25 805.006 1027.14C824.208 1011.38 852.003 1014.96 867.763 1034.16C883.523 1053.36 881.37 1080.9 862.098 1096.72C861.616 1097.12 861.202 1097.47 860.662 1097.8L860.651 1097.93Z" fill="url(#paint22_linear_1_86)"/>
<path d="M1301.41 977.395C1237.08 1059.38 1165.03 1135.19 1086.57 1203.3C1008.02 1271.36 923.129 1331.64 833.369 1383.13C743.609 1434.61 649.042 1477.22 551.543 1510.47C453.959 1543.66 353.502 1567.41 251.842 1581.34C150.183 1595.27 47.406 1599.44 -54.595 1593.91C-156.682 1588.31 -257.933 1572.91 -356.577 1547.94C-455.22 1522.96 -551.316 1488.49 -642.929 1445.23C-734.715 1401.86 -821.931 1349.76 -903.383 1290.16C-819.462 1346.23 -730.404 1394.24 -637.672 1433.15C-545 1472.15 -448.74 1501.99 -350.775 1522.26C-252.725 1542.59 -152.97 1553.35 -53.4024 1554.49C46.2508 1555.69 145.862 1547.25 243.445 1529.44C341.114 1511.69 436.9 1484.55 528.895 1448.73C621.035 1412.88 709.443 1368.26 792.588 1315.6C875.733 1262.95 953.581 1202.48 1024.8 1135.19C1096.01 1067.89 1160.45 993.805 1217.32 914.417C1234.2 890.859 1266.61 886.502 1290.16 903.383C1313.72 920.263 1319.61 951.945 1302.67 975.589C1302.25 976.191 1301.89 976.707 1301.38 977.249L1301.41 977.395Z" fill="url(#paint23_linear_1_86)"/>
<path d="M1748.92 633.364C1706.01 744.461 1652.59 851.388 1589.6 952.05C1526.5 1052.67 1453.86 1146.92 1372.96 1233.18C1292.07 1319.45 1202.95 1397.62 1107.5 1466.53C1011.94 1535.41 910.081 1594.93 803.63 1644.12C697.178 1693.32 586.247 1732.22 472.918 1760.25C359.475 1788.25 243.672 1805.25 127.517 1810.92C11.3615 1816.58 -105.182 1811.01 -219.761 1794.35C-334.568 1777.62 -447.297 1749.82 -556.231 1711.9C-445.776 1745.14 -332.404 1767.85 -218.053 1779.39C-103.74 1791.04 11.4368 1791.5 125.278 1780.92C239.233 1770.38 351.851 1748.8 461.052 1716.78C570.366 1684.79 676.413 1642.28 777.112 1590.21C877.925 1538.18 973.543 1476.51 1062.11 1406.62C1150.84 1336.65 1232.55 1258.35 1305.83 1173.01C1379.11 1087.68 1443.98 995.582 1499.33 898.241C1554.68 800.901 1600.35 698.397 1635.98 592.63C1646.55 561.242 1680.51 545.653 1711.9 556.23C1743.29 566.807 1760.31 599.465 1749.7 630.967C1749.44 631.766 1749.21 632.451 1748.84 633.213L1748.92 633.364Z" fill="url(#paint24_linear_1_86)"/>
<path d="M1380.1 -1537.73C1476.67 -1447.31 1564.57 -1347.8 1642.03 -1241.03C1719.41 -1134.17 1786.26 -1020.13 1841.44 -900.919C1896.62 -781.703 1940.05 -657.39 1971.31 -530.405C2002.49 -403.318 2021.4 -273.644 2027.77 -143.534C2034.14 -13.4248 2028.05 117.018 2009.76 245.405C1991.39 373.895 1960.71 500.243 1918.21 622.233C1875.71 744.223 1821.48 861.941 1756.64 973.018C1691.63 1084.3 1616.09 1188.84 1531.71 1285.25C1611.9 1185.32 1682.47 1078 1741.94 965.031C1801.51 852.145 1849.9 733.708 1886.38 612.055C1922.94 490.301 1947.59 365.332 1960.05 239.536C1972.59 113.638 1972.94 -13.2741 1961.21 -138.657C1949.57 -264.142 1925.84 -388.285 1890.71 -508.593C1855.57 -629.089 1808.93 -745.835 1751.53 -856.814C1694.14 -967.794 1626.27 -1072.94 1549.05 -1170.45C1471.83 -1267.96 1385.26 -1357.65 1291.15 -1438.36C1263.22 -1462.32 1261.3 -1503.78 1285.25 -1531.71C1309.21 -1559.63 1349.93 -1563.57 1377.96 -1539.53C1378.67 -1538.93 1379.28 -1538.42 1379.91 -1537.72L1380.1 -1537.73Z" fill="url(#paint25_linear_1_86)"/>
<path d="M2136.46 -697.986C2178.25 -560.279 2206.93 -418.727 2221.84 -276.02C2236.61 -133.263 2237.56 10.5143 2224.7 152.834C2211.85 295.153 2185.14 435.878 2145.53 572.507C2105.78 709.185 2053.07 841.63 1988.3 967.662C1923.54 1093.69 1846.85 1213.26 1759.8 1324.26C1672.61 1435.31 1574.99 1537.65 1468.6 1629.46C1362.22 1721.26 1247.1 1802.66 1125.61 1872.03C1003.84 1941.5 875.827 1998.9 743.894 2043.83C873.794 1993.31 998.636 1930.59 1116.1 1856.51C1233.62 1782.57 1343.63 1697.32 1444.15 1602.56C1544.82 1507.74 1636 1403.42 1716.16 1291.69C1796.45 1179.92 1865.8 1060.55 1922.95 936.054C1980.23 811.511 2025.4 681.657 2057.74 549.218C2090.17 416.593 2109.73 281.246 2116.02 145.482C2122.31 9.71827 2115.57 -126.24 2095.86 -260.101C2076.14 -393.962 2043.38 -525.54 1998.62 -652.753C1985.34 -690.508 2006.08 -730.615 2043.83 -743.894C2081.59 -757.173 2122.09 -738.739 2135.42 -700.847C2135.76 -699.893 2136.06 -699.076 2136.27 -698.073L2136.46 -697.986Z" fill="url(#paint26_linear_1_86)"/>
<path d="M2301 925.353C2238.65 1071.4 2162.49 1211.39 2073.88 1342.6C1985.11 1473.74 1883.93 1595.95 1772.12 1707.13C1660.31 1818.32 1537.92 1918.33 1407.53 2005.72C1276.98 2093.06 1138.49 2167.63 994.348 2228.23C850.211 2288.82 700.582 2335.5 548.264 2367.58C395.796 2399.6 240.695 2416.88 85.652 2419.02C-69.3906 2421.16 -224.429 2408.32 -376.332 2380.79C-528.537 2353.14 -677.456 2310.86 -820.848 2255.26C-675.212 2304.69 -525.197 2340.22 -373.36 2360.92C-221.578 2381.77 -68.1231 2387.74 84.0645 2378.94C236.402 2370.19 387.473 2346.69 534.475 2309.1C681.627 2271.56 824.915 2219.85 961.522 2155.15C1098.28 2090.51 1228.56 2012.78 1349.84 1923.77C1471.32 1834.66 1583.85 1734.13 1685.46 1623.83C1787.07 1513.53 1877.81 1393.83 1956.09 1266.69C2034.37 1139.56 2100 1005.1 2152.4 865.818C2167.95 824.486 2213.93 805.293 2255.26 820.848C2296.59 836.403 2317.76 880.712 2302.15 922.195C2301.76 923.248 2301.44 924.15 2300.9 925.148L2301 925.353Z" fill="url(#paint27_linear_1_86)"/>
<path d="M-207.067 230.717C-221.556 217.15 -234.744 202.22 -246.367 186.201C-257.977 170.167 -268.005 153.058 -276.285 135.171C-284.565 117.285 -291.08 98.633 -295.771 79.5804C-300.448 60.5125 -303.286 41.0566 -304.242 21.5353C-305.197 2.01398 -304.283 -17.5573 -301.539 -36.8202C-298.783 -56.0985 -294.181 -75.0555 -287.804 -93.3586C-281.427 -111.662 -273.29 -129.324 -263.562 -145.989C-253.807 -162.686 -242.474 -178.37 -229.813 -192.836C-241.846 -177.843 -252.433 -161.741 -261.356 -144.791C-270.294 -127.854 -277.555 -110.084 -283.028 -91.8315C-288.514 -73.5638 -292.211 -54.8137 -294.08 -35.9396C-295.963 -17.0502 -296.014 1.99137 -294.255 20.8035C-292.508 39.631 -288.948 58.2571 -283.678 76.3078C-278.405 94.3867 -271.407 111.903 -262.796 128.554C-254.184 145.205 -244.002 160.981 -232.416 175.611C-220.829 190.242 -207.841 203.699 -193.721 215.808C-189.531 219.402 -189.242 225.623 -192.836 229.813C-196.43 234.003 -202.54 234.594 -206.745 230.987C-206.852 230.897 -206.944 230.82 -207.039 230.715L-207.067 230.717Z" fill="url(#paint28_linear_1_86)"/>
<path d="M-368.355 120.342C-375.56 96.5995 -380.505 72.1941 -383.076 47.5893C-385.623 22.976 -385.786 -1.81309 -383.57 -26.3509C-381.353 -50.8887 -376.749 -75.1517 -369.919 -98.7083C-363.065 -122.274 -353.978 -145.109 -342.811 -166.839C-331.645 -188.568 -318.423 -209.183 -303.413 -228.321C-288.38 -247.468 -271.55 -265.113 -253.208 -280.941C-234.865 -296.769 -215.018 -310.803 -194.071 -322.764C-173.076 -334.742 -151.005 -344.638 -128.258 -352.385C-150.654 -343.675 -172.179 -332.861 -192.432 -320.088C-212.693 -307.34 -231.66 -292.641 -248.992 -276.303C-266.348 -259.956 -282.069 -241.969 -295.889 -222.706C-309.733 -203.434 -321.69 -182.853 -331.543 -161.389C-341.419 -139.916 -349.206 -117.527 -354.783 -94.693C-360.374 -71.8266 -363.746 -48.491 -364.831 -25.0834C-365.916 -1.67585 -364.753 21.7653 -361.354 44.8447C-357.956 67.9242 -352.306 90.61 -344.589 112.543C-342.3 119.053 -345.875 125.968 -352.385 128.257C-358.894 130.547 -365.877 127.368 -368.175 120.835C-368.235 120.671 -368.287 120.53 -368.323 120.357L-368.355 120.342Z" fill="url(#paint29_linear_1_86)"/>
<path d="M-95.9496 455.011C-124.947 448.253 -153.277 438.749 -180.389 426.657C-207.496 414.536 -233.355 399.832 -257.526 382.806C-281.697 365.781 -304.149 346.438 -324.532 325.206C-344.909 303.944 -363.188 280.799 -379.07 256.156C-394.952 231.514 -408.443 205.405 -419.326 178.324C-430.204 151.213 -438.443 123.136 -443.887 94.5764C-449.33 66.0173 -452.007 36.9712 -451.869 8.02548C-451.72 -20.9793 -448.761 -49.8542 -443.164 -78.142C-447.549 -49.6406 -449.226 -20.7833 -448.104 7.92763C-447.013 36.6333 -443.117 65.1631 -436.538 92.9783C-429.963 120.823 -420.703 147.953 -408.976 173.873C-397.254 199.823 -383.04 224.598 -366.646 247.716C-350.256 270.863 -331.662 292.389 -311.277 311.885C-290.869 331.416 -268.641 348.922 -244.966 364.093C-221.291 379.265 -196.232 392.121 -170.208 402.437C-144.184 412.753 -117.219 420.493 -89.7947 425.633C-81.6561 427.16 -76.6153 435.025 -78.1417 443.163C-79.6681 451.302 -87.161 456.652 -95.3291 455.12C-95.5359 455.084 -95.7132 455.053 -95.9148 454.987L-95.9496 455.011Z" fill="url(#paint30_linear_1_86)"/>
<path d="M-20.64 619.68C-60.28 617.52 -99.68 611.6 -138.08 602C-176.48 592.36 -213.84 579.04 -249.52 562.28C-285.2 545.52 -319.16 525.32 -350.84 502.16C-382.52 478.96 -411.88 452.8 -438.44 424.12C-465 395.44 -488.76 364.28 -509.32 331.24C-529.88 298.16 -547.2 263.2 -560.96 226.96C-574.72 190.72 -584.96 153.2 -591.48 115.16C-598 77.0397 -600.8 38.4397 -600 -0.000305176C-599.16 38.4397 -594.68 76.7197 -586.56 114.16C-578.48 151.6 -566.76 188.16 -551.68 223.16C-536.6 258.2 -518.16 291.68 -496.76 323C-475.36 354.36 -450.96 383.6 -424.08 410.16C-397.2 436.76 -367.8 460.72 -336.52 481.6C-305.2 502.52 -271.96 520.36 -237.36 534.8C-202.76 549.24 -166.88 560.32 -130.32 567.84C-93.76 575.36 -56.56 579.28 -19.36 579.68C-8.32004 579.8 0.119957 588.96 -4.30391e-05 600C-0.120043 611.04 -8.72004 619.8 -19.8 619.68C-20.08 619.68 -20.32 619.68 -20.6 619.64L-20.64 619.68Z" fill="url(#paint31_linear_1_86)"/>
<path d="M-609.962 478.139C-639.744 438.446 -665.732 395.962 -687.394 351.478C-709.017 306.962 -726.28 260.486 -738.9 212.854C-751.519 165.222 -759.463 116.473 -762.741 67.5288C-765.98 18.5526 -764.52 -30.5804 -758.398 -79.057C-752.276 -127.534 -741.529 -175.322 -726.411 -221.556C-711.255 -267.823 -691.695 -312.498 -668.05 -354.792C-644.404 -397.086 -616.704 -437.038 -585.517 -473.846C-554.254 -510.718 -519.542 -544.414 -482.091 -574.534C-518.224 -542.843 -551.28 -507.796 -580.606 -469.938C-609.965 -432.119 -635.557 -391.521 -656.954 -348.959C-678.391 -306.365 -695.633 -261.807 -708.429 -216.15C-721.264 -170.461 -729.658 -123.603 -733.493 -76.5232C-737.366 -29.4114 -736.687 17.9922 -731.547 64.7213C-726.414 111.521 -716.789 157.684 -702.816 202.418C-688.842 247.152 -670.623 290.411 -648.448 331.462C-626.274 372.512 -600.138 411.283 -570.631 447.225C-561.876 457.893 -563.866 473.335 -574.533 482.09C-585.201 490.846 -600.499 489.65 -609.287 478.943C-609.512 478.675 -609.705 478.445 -609.892 478.145L-609.962 478.139Z" fill="url(#paint32_linear_1_86)"/>
<path d="M-724.734 807.511C-775.445 760.026 -821.604 707.769 -862.284 651.704C-902.918 595.586 -938.019 535.704 -966.997 473.1C-995.976 410.496 -1018.78 345.216 -1035.2 278.532C-1051.57 211.794 -1061.5 143.699 -1064.85 75.374C-1068.19 7.04946 -1064.99 -61.4501 -1055.39 -128.87C-1045.74 -196.344 -1029.63 -262.694 -1007.31 -326.754C-984.994 -390.815 -956.516 -452.633 -922.466 -510.962C-888.326 -569.399 -848.659 -624.295 -804.347 -674.927C-846.461 -622.451 -883.515 -566.094 -914.745 -506.769C-946.029 -447.488 -971.443 -385.293 -990.598 -321.41C-1009.8 -257.473 -1022.74 -191.847 -1029.28 -125.788C-1035.87 -59.6753 -1036.05 6.9703 -1029.89 72.8128C-1023.78 138.709 -1011.32 203.901 -992.873 267.078C-974.418 330.354 -949.925 391.661 -919.784 449.94C-889.644 508.218 -854.007 563.433 -813.455 614.639C-772.903 665.846 -727.443 712.946 -678.023 755.328C-663.358 767.908 -662.347 789.681 -674.927 804.346C-687.507 819.011 -708.889 821.081 -723.608 808.456C-723.983 808.141 -724.305 807.871 -724.635 807.503L-724.734 807.511Z" fill="url(#paint33_linear_1_86)"/>
<path d="M182.197 1281.41C99.9223 1291.34 16.7784 1293.45 -65.6437 1287.64C-148.08 1281.74 -229.713 1267.9 -309.139 1246.38C-388.564 1224.85 -465.701 1195.64 -539.224 1159.51C-612.761 1123.3 -682.602 1080.16 -747.599 1030.83C-812.597 981.498 -872.738 926.052 -926.982 865.582C-981.24 805.029 -1029.52 739.438 -1070.94 669.924C-1112.37 600.41 -1147.02 526.989 -1174.21 451.15C-1201.43 375.147 -1221.18 296.809 -1233.47 217.494C-1217.81 296.214 -1194.72 373.286 -1164.46 447.311C-1134.28 521.35 -1096.93 592.262 -1053.24 658.748C-1009.54 725.316 -959.495 787.46 -904.148 844.089C-848.787 900.802 -788.026 952.068 -723.139 996.926C-658.237 1041.87 -589.112 1080.47 -517.238 1112.05C-445.267 1143.71 -370.466 1168.33 -294.102 1185.47C-217.737 1202.62 -139.959 1212.39 -62.0735 1214.6C15.812 1216.8 93.7082 1211.38 170.328 1198.72C193.068 1194.96 213.739 1210.73 217.494 1233.47C221.249 1256.21 206.745 1277.34 183.924 1281.11C183.348 1281.21 182.854 1281.3 182.264 1281.31L182.197 1281.41Z" fill="url(#paint34_linear_1_86)"/>
<path d="M-1326.08 433.232C-1352.02 347.759 -1369.82 259.899 -1379.07 171.322C-1388.24 82.7144 -1388.83 -6.52646 -1380.85 -94.8626C-1372.87 -183.199 -1356.3 -270.545 -1331.71 -355.349C-1307.04 -440.184 -1274.32 -522.391 -1234.12 -600.618C-1193.92 -678.845 -1146.32 -753.06 -1092.29 -821.956C-1038.17 -890.882 -977.581 -954.406 -911.548 -1011.39C-845.514 -1068.37 -774.065 -1118.89 -698.654 -1161.95C-623.074 -1205.07 -543.617 -1240.7 -461.727 -1268.59C-542.355 -1237.23 -619.843 -1198.3 -692.754 -1152.32C-765.696 -1106.42 -833.976 -1053.51 -896.372 -994.69C-958.852 -935.842 -1015.45 -871.089 -1065.2 -801.741C-1115.04 -732.362 -1158.08 -658.271 -1193.55 -580.999C-1229.11 -503.697 -1257.14 -423.098 -1277.22 -340.894C-1297.35 -258.575 -1309.49 -174.567 -1313.39 -90.2997C-1317.3 -6.03238 -1313.11 78.3556 -1300.88 161.442C-1288.64 244.528 -1268.3 326.197 -1240.52 405.157C-1232.28 428.591 -1245.15 453.485 -1268.59 461.727C-1292.02 469.969 -1317.16 458.527 -1325.43 435.008C-1325.65 434.416 -1325.83 433.909 -1325.96 433.286L-1326.08 433.232Z" fill="url(#paint35_linear_1_86)"/>
<path d="M-1363.56 888.632C-1418.6 800.143 -1465.19 706.509 -1502.36 609.484C-1539.45 512.399 -1567.06 412.01 -1584.74 310.054C-1602.43 208.097 -1610.12 104.66 -1608.02 1.66883C-1605.83 -101.383 -1593.79 -203.902 -1572.11 -304.195C-1550.43 -404.488 -1519.2 -502.494 -1479.11 -596.45C-1438.93 -690.467 -1389.84 -780.346 -1332.63 -864.498C-1275.42 -948.651 -1210.16 -1027.16 -1138.18 -1098.46C-1066.03 -1169.87 -987.244 -1234.01 -903.383 -1290.16C-984.775 -1230.48 -1060.34 -1163.21 -1128.62 -1089.38C-1196.96 -1015.64 -1257.93 -935.389 -1310.49 -850.265C-1363.13 -765.082 -1407.35 -675.022 -1442.48 -581.849C-1477.69 -488.617 -1503.83 -392.125 -1520.47 -294.336C-1537.19 -196.487 -1544.45 -97.1935 -1542.25 1.50481C-1540.08 100.349 -1528.39 198.685 -1507.35 294.826C-1486.3 390.967 -1456.1 484.801 -1417.23 574.738C-1378.35 664.674 -1330.77 750.566 -1275.62 831.159C-1259.26 855.078 -1266.25 887.018 -1290.16 903.383C-1314.08 919.747 -1345.87 914.444 -1362.29 890.438C-1362.72 889.836 -1363.08 889.32 -1363.41 888.658L-1363.56 888.632Z" fill="url(#paint36_linear_1_86)"/>
<path d="M-1193.33 1426.82C-1283.05 1348.5 -1365.26 1261.73 -1438.31 1168.12C-1511.28 1074.4 -1575 973.91 -1628.4 868.388C-1681.79 762.866 -1724.76 652.39 -1756.88 539.126C-1788.92 425.768 -1810.01 309.698 -1819.83 192.841C-1829.65 75.9849 -1828.26 -41.5628 -1815.84 -157.644C-1803.35 -273.821 -1779.72 -388.457 -1745.32 -499.544C-1710.91 -610.631 -1665.82 -718.243 -1610.98 -820.213C-1555.98 -922.372 -1491.31 -1018.8 -1418.42 -1108.19C-1487.43 -1015.77 -1547.54 -916.996 -1597.5 -813.49C-1647.55 -710.057 -1687.37 -601.981 -1716.36 -491.387C-1745.43 -380.699 -1763.68 -267.493 -1770.93 -153.926C-1778.26 -40.2644 -1774.59 73.9264 -1760.1 186.362C-1745.68 298.892 -1720.43 409.836 -1685.05 516.97C-1649.65 624.273 -1604.02 727.842 -1548.89 825.884C-1493.77 923.926 -1429.41 1016.39 -1356.87 1101.69C-1284.33 1187 -1203.63 1264.97 -1116.43 1334.62C-1090.55 1355.3 -1087.52 1392.54 -1108.19 1418.42C-1128.86 1444.3 -1165.38 1449.12 -1191.35 1428.37C-1192.01 1427.86 -1192.58 1427.41 -1193.16 1426.8L-1193.33 1426.82Z" fill="url(#paint37_linear_1_86)"/>
<path d="M972.974 1822.81C854.973 1882.62 731.399 1931.19 604.579 1967.47C477.693 2003.63 347.677 2027.44 216.777 2038.52C85.8769 2049.6 -45.7908 2047.89 -175.811 2033.84C-305.897 2019.67 -434.22 1993.09 -558.661 1954.57C-683.102 1916.06 -803.594 1865.72 -917.984 1804.62C-1032.44 1743.41 -1140.68 1671.37 -1240.78 1589.71C-1340.87 1508.05 -1432.94 1416.83 -1515.14 1317.91C-1597.48 1218.76 -1669.88 1112.02 -1731.62 999.75C-1665.14 1109.29 -1588.43 1212.3 -1502.61 1306.82C-1416.91 1401.41 -1322.16 1487.4 -1220.32 1563.28C-1118.42 1639.28 -1009.41 1705.18 -895.465 1759.91C-781.451 1814.76 -662.31 1858.49 -540.478 1890.36C-418.58 1922.34 -293.807 1942.5 -168.741 1950.64C-43.4924 1958.83 82.1651 1954.93 206.082 1938.95C330 1922.97 452.012 1895.16 570.056 1855.95C688.099 1816.73 801.991 1766.06 910.018 1705.23C942.08 1687.18 981.701 1699.56 999.75 1731.62C1017.8 1763.68 1007.58 1803.29 975.398 1821.41C974.59 1821.87 973.898 1822.27 973.023 1822.62L972.974 1822.81Z" fill="url(#paint38_linear_1_86)"/>
<path d="M-74.8201 2246.34C-218.515 2238.51 -361.34 2217.05 -500.54 2182.25C-639.74 2147.3 -775.17 2099.02 -904.51 2038.26C-1033.85 1977.51 -1156.96 1904.28 -1271.8 1820.33C-1386.64 1736.23 -1493.07 1641.4 -1589.35 1537.43C-1685.63 1433.47 -1771.76 1320.51 -1846.29 1200.74C-1920.82 1080.83 -1983.6 954.1 -2033.48 822.73C-2083.36 691.36 -2120.48 555.35 -2144.12 417.455C-2167.75 279.27 -2177.9 139.345 -2175 -0.000305176C-2171.96 139.345 -2155.72 278.11 -2126.28 413.83C-2096.99 549.55 -2054.51 682.08 -1999.84 808.955C-1945.18 935.975 -1878.33 1057.34 -1800.76 1170.87C-1723.18 1284.55 -1634.73 1390.55 -1537.29 1486.83C-1439.85 1583.25 -1333.28 1670.11 -1219.89 1745.8C-1106.35 1821.63 -985.855 1886.3 -860.43 1938.65C-735.005 1990.99 -604.94 2031.16 -472.41 2058.42C-339.88 2085.68 -205.03 2099.89 -70.1801 2101.34C-30.1601 2101.77 0.434936 2134.98 -6.44646e-05 2175C-0.435064 2215.02 -31.6101 2246.77 -71.7751 2246.34C-72.7901 2246.34 -73.6601 2246.34 -74.6751 2246.19L-74.8201 2246.34Z" fill="url(#paint39_linear_1_86)"/>
<path d="M-1656.54 1845.74C-1772.45 1737.2 -1877.95 1617.76 -1970.93 1489.61C-2063.81 1361.34 -2144.04 1224.47 -2210.28 1081.37C-2276.52 938.278 -2328.64 789.065 -2366.16 636.645C-2403.59 484.102 -2426.29 328.454 -2433.93 172.284C-2441.58 16.1134 -2434.27 -140.457 -2412.31 -294.56C-2390.26 -448.786 -2353.44 -600.442 -2302.43 -746.867C-2251.41 -893.292 -2186.32 -1034.59 -2108.49 -1167.91C-2030.46 -1301.48 -1939.79 -1426.96 -1838.51 -1542.69C-1934.77 -1422.74 -2019.46 -1293.93 -2090.85 -1158.33C-2162.35 -1022.83 -2220.44 -880.67 -2264.22 -734.65C-2308.11 -588.509 -2337.69 -438.508 -2352.64 -287.515C-2367.7 -136.4 -2368.11 15.9324 -2354.04 166.43C-2340.07 317.049 -2311.58 466.059 -2269.42 610.464C-2227.24 755.095 -2171.26 895.225 -2102.36 1028.43C-2033.47 1161.64 -1952.02 1287.85 -1859.33 1404.89C-1766.63 1521.93 -1662.73 1629.59 -1549.77 1726.46C-1516.25 1755.22 -1513.94 1804.99 -1542.69 1838.51C-1571.44 1872.03 -1620.32 1876.76 -1653.96 1847.9C-1654.82 1847.18 -1655.55 1846.56 -1656.31 1845.72L-1656.54 1845.74Z" fill="url(#paint40_linear_1_86)"/>
<path d="M98.3141 -157.902C108.289 -151.395 117.637 -143.947 126.174 -135.692C134.705 -127.428 142.413 -118.363 149.169 -108.657C155.925 -98.9505 161.718 -88.6084 166.475 -77.8392C171.225 -67.0597 174.929 -55.8591 177.528 -44.4238C180.126 -32.9886 181.625 -21.3289 182.011 -9.66091C182.391 2.01753 181.646 13.6984 179.785 25.1778C177.924 36.6573 174.957 47.9412 170.945 58.8023C166.921 69.6842 161.858 80.1328 155.884 89.9998C161.432 79.8868 166.01 69.2693 169.516 58.3241C173.033 47.3849 175.472 36.1284 176.804 24.7731C178.142 13.4074 178.374 1.94308 177.512 -9.4041C176.656 -20.7617 174.703 -32.0184 171.703 -42.9509C168.709 -53.8938 164.665 -64.5288 159.67 -74.6456C154.671 -84.7788 148.711 -94.3997 141.888 -103.341C135.064 -112.283 127.404 -120.544 119.034 -127.981C110.663 -135.419 101.586 -142.018 91.9816 -147.702C89.1313 -149.389 88.3125 -153.035 89.9997 -155.885C91.6869 -158.735 95.2352 -159.721 98.0959 -158.028C98.1686 -157.986 98.231 -157.95 98.2977 -157.897L98.3141 -157.902Z" fill="url(#paint41_linear_1_86)"/>
<path d="M-96.2742 -294.684C-77.2801 -300.448 -57.7558 -304.405 -38.072 -306.461C-18.3814 -308.498 1.44994 -308.629 21.0802 -306.856C40.7104 -305.083 60.1208 -301.4 78.9661 -295.935C97.8183 -290.453 116.087 -283.182 133.47 -274.249C150.854 -265.316 167.346 -254.739 182.656 -242.731C197.973 -230.704 212.09 -217.241 224.752 -202.566C237.415 -187.892 248.642 -172.015 258.211 -155.257C267.793 -138.461 275.71 -120.804 281.907 -102.606C274.939 -120.524 266.288 -137.743 256.07 -153.946C245.871 -170.155 234.112 -185.328 221.042 -199.194C207.964 -213.079 193.575 -225.656 178.164 -236.712C162.747 -247.786 146.282 -257.352 129.111 -265.234C111.932 -273.136 94.0214 -279.365 75.7539 -283.827C57.4608 -288.3 38.7923 -290.997 20.0662 -291.865C1.34014 -292.733 -17.4127 -291.803 -35.8763 -289.084C-54.3399 -286.365 -72.4885 -281.845 -90.0352 -275.672C-95.2428 -273.84 -100.775 -276.7 -102.606 -281.908C-104.438 -287.116 -101.895 -292.702 -96.6689 -294.541C-96.5373 -294.588 -96.4246 -294.63 -96.2862 -294.659L-96.2742 -294.684Z" fill="url(#paint42_linear_1_86)"/>
<path d="M79.9576 -379.176C104.122 -373.545 127.73 -365.625 150.324 -355.548C172.913 -345.447 194.463 -333.194 214.605 -319.006C234.747 -304.818 253.457 -288.699 270.443 -271.005C287.424 -253.287 302.656 -233.999 315.891 -213.464C329.127 -192.929 340.369 -171.171 349.438 -148.603C358.503 -126.011 365.369 -102.613 369.905 -78.8142C374.441 -55.0149 376.672 -30.8098 376.557 -6.68837C376.433 17.4823 373.967 41.5447 369.303 65.1178C372.957 41.3667 374.355 17.3189 373.42 -6.60683C372.51 -30.5283 369.264 -54.3031 363.781 -77.4824C358.302 -100.686 350.586 -123.295 340.813 -144.895C331.045 -166.52 319.2 -187.165 305.538 -206.43C291.88 -225.72 276.384 -243.658 259.397 -259.905C242.39 -276.18 223.867 -290.768 204.138 -303.412C184.409 -316.055 163.527 -326.768 141.84 -335.365C120.153 -343.961 97.682 -350.411 74.8286 -354.695C68.0464 -355.967 63.8457 -362.521 65.1178 -369.303C66.3898 -376.085 72.6338 -380.544 79.4406 -379.267C79.613 -379.237 79.7607 -379.211 79.9287 -379.156L79.9576 -379.176Z" fill="url(#paint43_linear_1_86)"/>
<path d="M-346.077 -310.601C-325.726 -332.334 -303.33 -352.116 -279.302 -369.55C-255.251 -386.965 -229.588 -402.008 -202.758 -414.428C-175.927 -426.847 -147.95 -436.62 -119.371 -443.656C-90.7694 -450.673 -61.5855 -454.93 -32.3035 -456.363C-3.02159 -457.796 26.3354 -456.425 55.2297 -452.309C84.1471 -448.174 112.583 -441.271 140.037 -431.706C167.492 -422.14 193.985 -409.936 218.983 -395.343C244.028 -380.711 267.555 -363.711 289.254 -344.72C266.764 -362.769 242.611 -378.65 217.186 -392.034C191.78 -405.441 165.125 -416.333 137.747 -424.542C110.345 -432.771 82.2199 -438.317 53.9088 -441.121C25.5747 -443.944 -2.98767 -444.022 -31.2059 -441.383C-59.4471 -438.763 -87.3863 -433.422 -114.462 -425.517C-141.581 -417.608 -167.855 -407.111 -192.832 -394.194C-217.808 -381.276 -241.471 -366.003 -263.417 -348.624C-285.363 -331.244 -305.549 -311.761 -323.712 -290.582C-329.104 -284.297 -338.435 -283.863 -344.72 -289.255C-351.005 -294.646 -351.892 -303.81 -346.482 -310.118C-346.347 -310.279 -346.231 -310.417 -346.073 -310.558L-346.077 -310.601Z" fill="url(#paint44_linear_1_86)"/>
<path d="M-526.339 -327.715C-504.648 -360.964 -479.821 -392.126 -452.308 -420.581C-424.759 -449.016 -394.544 -474.711 -362.189 -497.231C-329.834 -519.751 -295.361 -539.061 -259.464 -554.916C-223.532 -570.752 -186.197 -583.099 -148.079 -591.76C-109.961 -600.422 -71.096 -605.419 -32.2025 -606.704C6.72557 -607.97 45.6618 -605.489 83.9266 -599.286C122.191 -593.082 159.805 -583.19 196.008 -569.817C232.281 -556.403 267.11 -539.528 300 -519.615C266.29 -538.108 230.898 -553.368 194.414 -565.056C157.95 -576.779 120.428 -584.909 82.5774 -589.349C44.6919 -593.809 6.47741 -594.58 -31.3465 -591.707C-69.2051 -588.854 -106.728 -582.343 -143.169 -572.344C-179.646 -562.365 -215.096 -548.884 -248.818 -532.235C-282.595 -515.571 -314.665 -495.704 -344.471 -472.96C-374.276 -450.215 -401.812 -424.682 -426.604 -396.781C-451.397 -368.879 -473.391 -338.623 -492.338 -306.606C-497.962 -297.105 -510.115 -294.376 -519.616 -300C-529.116 -305.624 -532.403 -317.452 -526.759 -326.987C-526.619 -327.23 -526.499 -327.438 -526.324 -327.66L-526.339 -327.715Z" fill="url(#paint45_linear_1_86)"/>
<path d="M-109.1 -767.312C-59.8341 -773.258 -10.0473 -774.522 39.3072 -771.04C88.6705 -767.508 137.552 -759.22 185.113 -746.333C232.673 -733.446 278.863 -715.951 322.888 -694.318C366.922 -672.635 408.743 -646.804 447.664 -617.264C486.585 -587.724 522.597 -554.523 555.079 -518.313C587.568 -482.054 616.478 -442.777 641.283 -401.152C666.088 -359.527 686.837 -315.562 703.121 -270.15C719.421 -224.639 731.246 -177.73 738.605 -130.236C729.228 -177.374 715.404 -223.525 697.281 -267.851C679.208 -312.186 656.845 -354.648 630.684 -394.46C604.514 -434.321 574.548 -471.533 541.406 -505.443C508.255 -539.403 471.871 -570.101 433.017 -596.962C394.153 -623.872 352.761 -646.986 309.723 -665.9C266.627 -684.854 221.836 -699.6 176.108 -709.866C130.381 -720.131 83.8074 -725.983 37.1694 -727.304C-9.46864 -728.626 -56.1131 -725.376 -101.993 -717.794C-115.61 -715.546 -127.988 -724.99 -130.236 -738.606C-132.485 -752.222 -123.8 -764.873 -110.134 -767.13C-109.79 -767.191 -109.494 -767.243 -109.141 -767.255L-109.1 -767.312Z" fill="url(#paint46_linear_1_86)"/>
<path d="M491.572 -789.508C541.446 -756.972 588.188 -719.732 630.871 -678.461C673.524 -637.138 712.066 -591.815 745.846 -543.283C779.625 -494.751 808.591 -443.041 832.374 -389.195C856.128 -335.297 874.647 -279.295 887.64 -222.118C900.632 -164.942 908.127 -106.644 910.056 -48.3035C911.954 10.0886 908.233 68.493 898.928 125.89C889.623 183.287 874.785 239.707 854.725 294.013C834.604 348.422 809.292 400.665 779.423 450C807.161 399.435 830.052 346.348 847.583 291.622C865.167 236.926 877.362 180.643 884.023 123.866C890.713 67.0381 891.869 9.71639 887.56 -47.0195C883.28 -103.807 873.514 -160.091 858.516 -214.754C843.548 -269.468 823.326 -322.643 798.352 -373.227C773.356 -423.893 743.556 -471.998 709.439 -516.706C675.323 -561.414 637.023 -602.717 595.17 -639.906C553.317 -677.095 507.933 -710.087 459.909 -738.507C445.658 -746.942 441.564 -765.172 450 -779.423C458.435 -793.674 476.177 -798.604 490.481 -790.138C490.844 -789.928 491.156 -789.748 491.49 -789.486L491.572 -789.508Z" fill="url(#paint47_linear_1_86)"/>
<path d="M-336.959 -1031.39C-270.48 -1051.57 -202.145 -1065.42 -133.251 -1072.61C-64.334 -1079.74 5.07554 -1080.2 73.7814 -1073.99C142.487 -1067.79 210.424 -1054.9 276.382 -1035.77C342.365 -1016.58 406.304 -991.137 467.147 -959.871C527.99 -928.605 585.712 -891.585 639.298 -849.558C692.908 -807.465 742.315 -760.341 786.633 -708.982C830.952 -657.622 870.248 -602.051 903.739 -543.398C937.277 -484.614 964.985 -422.813 986.677 -359.121C962.288 -421.832 932.009 -482.1 896.246 -538.809C860.55 -595.541 819.394 -648.648 773.647 -697.178C727.876 -745.774 677.513 -789.794 623.576 -828.49C569.614 -867.251 511.988 -900.731 451.888 -928.32C391.764 -955.974 329.076 -977.778 265.139 -993.392C201.113 -1009.05 135.774 -1018.49 70.2325 -1021.53C4.69126 -1024.56 -60.9438 -1021.31 -125.566 -1011.79C-190.189 -1002.28 -253.709 -986.457 -315.122 -964.85C-333.349 -958.439 -352.711 -968.451 -359.122 -986.677C-365.532 -1004.9 -356.633 -1024.46 -338.34 -1030.89C-337.88 -1031.06 -337.485 -1031.2 -337.001 -1031.3L-336.959 -1031.39Z" fill="url(#paint48_linear_1_86)"/>
<path d="M-1200.83 -482.919C-1168.29 -559.135 -1128.55 -632.196 -1082.3 -700.667C-1035.98 -769.11 -983.175 -832.886 -924.824 -890.91C-866.473 -948.934 -802.603 -1001.13 -734.553 -1046.74C-666.426 -1092.32 -594.148 -1131.23 -518.926 -1162.86C-443.704 -1194.48 -365.616 -1218.84 -286.126 -1235.58C-206.556 -1252.29 -125.613 -1261.31 -44.6999 -1262.43C36.2129 -1263.54 117.124 -1256.84 196.398 -1242.47C275.83 -1228.05 353.547 -1205.98 428.38 -1176.97C352.376 -1202.76 274.087 -1221.31 194.847 -1232.11C115.636 -1242.99 35.5515 -1246.1 -43.8715 -1241.51C-123.373 -1236.95 -202.213 -1224.68 -278.929 -1205.06C-355.724 -1185.47 -430.503 -1158.48 -501.794 -1124.72C-573.165 -1090.98 -641.155 -1050.42 -704.447 -1003.97C-767.845 -957.466 -826.572 -904.999 -879.601 -847.437C-932.63 -789.875 -979.982 -727.403 -1020.84 -661.056C-1061.69 -594.709 -1095.94 -524.536 -1123.28 -451.849C-1131.4 -430.279 -1155.39 -420.263 -1176.97 -428.38C-1198.54 -436.498 -1209.58 -459.622 -1201.43 -481.271C-1201.23 -481.82 -1201.06 -482.291 -1200.78 -482.812L-1200.83 -482.919Z" fill="url(#paint49_linear_1_86)"/>
<path d="M287.848 -1365.03C374.839 -1344.76 459.83 -1316.25 541.166 -1279.97C622.487 -1243.61 700.066 -1199.5 772.578 -1148.42C845.09 -1097.34 912.447 -1039.31 973.595 -975.619C1034.73 -911.834 1089.56 -842.397 1137.21 -768.471C1184.86 -694.544 1225.33 -616.216 1257.98 -534.972C1290.61 -453.64 1315.33 -369.408 1331.66 -283.73C1347.99 -198.053 1356.02 -110.915 1355.61 -24.0775C1355.16 62.9368 1346.28 149.561 1329.49 234.425C1342.65 148.921 1347.68 62.3488 1344.31 -23.784C1341.04 -109.901 1329.35 -195.491 1309.61 -278.936C1289.89 -362.47 1262.11 -443.86 1226.93 -521.621C1191.76 -599.47 1149.12 -673.794 1099.94 -743.148C1050.77 -812.591 994.984 -877.169 933.832 -935.657C872.606 -994.249 805.922 -1046.77 734.897 -1092.28C663.872 -1137.8 588.697 -1176.37 510.625 -1207.31C432.553 -1238.26 351.656 -1261.48 269.384 -1276.9C244.968 -1281.48 229.845 -1305.07 234.425 -1329.49C239.004 -1353.91 261.483 -1369.96 285.987 -1365.36C286.607 -1365.25 287.139 -1365.16 287.744 -1364.96L287.848 -1365.03Z" fill="url(#paint50_linear_1_86)"/>
<path d="M-87.7992 -1625.19C16.354 -1628.61 120.74 -1622.15 223.353 -1605.83C325.975 -1589.4 426.719 -1563.12 523.857 -1527.45C620.995 -1491.79 714.422 -1446.74 802.564 -1393.42C890.716 -1340 973.477 -1278.31 1049.49 -1209.39C1125.51 -1140.46 1194.77 -1064.42 1256.1 -982.721C1317.43 -900.92 1370.72 -813.462 1414.99 -721.842C1459.27 -630.222 1494.63 -534.449 1520.38 -436.466C1546.15 -338.274 1562.3 -237.975 1569.01 -137.271C1558.02 -237.599 1537.54 -336.677 1507.74 -432.725C1478.05 -528.783 1439.04 -621.706 1391.59 -709.782C1344.14 -797.962 1288.26 -881.293 1225.14 -958.3C1162 -1035.41 1091.5 -1106.29 1015.14 -1169.6C938.759 -1233.01 856.396 -1288.94 769.821 -1336.38C683.133 -1383.92 592.128 -1422.97 498.345 -1452.81C404.562 -1482.66 308.201 -1503.42 210.875 -1514.72C113.55 -1526.02 15.3749 -1527.76 -81.9951 -1520.3C-110.892 -1518.09 -135.059 -1540.11 -137.271 -1569.01C-139.483 -1597.9 -118.998 -1622.78 -89.9958 -1625C-89.2636 -1625.06 -88.636 -1625.12 -87.8946 -1625.08L-87.7992 -1625.19Z" fill="url(#paint51_linear_1_86)"/>
<path d="M-638.998 -1746.87C-526.31 -1785.41 -410.063 -1813.22 -292.463 -1829.67C-174.818 -1846.01 -55.9299 -1850.95 62.1511 -1844.43C180.232 -1837.91 297.395 -1819.88 411.542 -1791.06C525.734 -1762.14 636.8 -1722.37 742.909 -1672.44C849.018 -1622.51 950.126 -1562.54 1044.45 -1493.75C1138.81 -1424.84 1226.28 -1347.06 1305.28 -1261.72C1384.28 -1176.38 1454.93 -1083.52 1515.81 -985.041C1576.79 -886.335 1627.96 -782.114 1668.93 -674.292C1623.39 -780.271 1567.91 -881.714 1503.25 -976.73C1438.7 -1071.79 1365.01 -1160.31 1283.73 -1240.72C1202.41 -1321.24 1113.49 -1393.64 1018.77 -1456.71C924.001 -1519.89 823.271 -1573.8 718.654 -1617.47C613.992 -1661.25 505.288 -1694.86 394.816 -1717.78C284.187 -1740.78 171.68 -1753.04 59.21 -1754.32C-53.2596 -1755.61 -165.514 -1746.1 -275.658 -1725.93C-385.803 -1705.76 -493.682 -1674.86 -597.605 -1634.17C-628.448 -1622.09 -662.219 -1638.09 -674.292 -1668.93C-686.365 -1699.77 -672.289 -1733.81 -641.334 -1745.92C-640.555 -1746.24 -639.888 -1746.51 -639.064 -1746.71L-638.998 -1746.87Z" fill="url(#paint52_linear_1_86)"/>
<path d="M-1907.98 -1187.97C-1829.35 -1308.49 -1739.35 -1421.45 -1639.61 -1524.61C-1539.75 -1627.68 -1430.22 -1720.83 -1312.93 -1802.46C-1195.65 -1884.1 -1070.68 -1954.1 -940.555 -2011.57C-810.302 -2068.98 -674.962 -2113.73 -536.786 -2145.13C-398.609 -2176.53 -257.722 -2194.64 -116.733 -2199.3C24.3811 -2203.89 165.525 -2194.9 304.235 -2172.41C442.944 -2149.92 579.293 -2114.06 710.531 -2065.59C842.02 -2016.96 968.273 -1955.79 1087.5 -1883.61C965.301 -1950.64 837.007 -2005.96 704.752 -2048.33C572.571 -2090.82 436.554 -2120.29 299.344 -2136.39C162.009 -2152.56 23.4815 -2155.35 -113.63 -2144.94C-250.867 -2134.6 -386.887 -2110.99 -518.988 -2074.75C-651.214 -2038.57 -779.72 -1989.71 -901.965 -1929.35C-1024.41 -1868.94 -1140.66 -1796.93 -1248.71 -1714.48C-1356.75 -1632.03 -1456.57 -1539.47 -1546.44 -1438.33C-1636.31 -1337.18 -1716.04 -1227.51 -1784.72 -1111.45C-1805.11 -1077.01 -1849.16 -1067.11 -1883.61 -1087.5C-1918.05 -1107.89 -1929.96 -1150.76 -1909.5 -1185.33C-1908.99 -1186.21 -1908.56 -1186.96 -1907.92 -1187.77L-1907.98 -1187.97Z" fill="url(#paint53_linear_1_86)"/>
<path d="M-770.191 -2357.47C-618.239 -2403.58 -462.044 -2435.23 -304.574 -2451.68C-147.049 -2467.98 11.6018 -2469.03 168.644 -2454.84C325.686 -2440.66 480.969 -2411.19 631.731 -2367.48C782.549 -2323.62 928.695 -2265.46 1067.76 -2193.99C1206.83 -2122.53 1338.77 -2037.91 1461.25 -1941.85C1583.79 -1845.63 1696.72 -1737.92 1798.02 -1620.53C1899.32 -1503.14 1989.14 -1376.12 2065.69 -1242.05C2142.35 -1107.69 2205.68 -966.43 2255.26 -820.848C2199.52 -964.186 2130.31 -1101.94 2048.56 -1231.56C1966.97 -1361.24 1872.9 -1482.62 1768.34 -1593.55C1663.72 -1704.63 1548.6 -1805.24 1425.32 -1893.69C1301.98 -1982.29 1170.26 -2058.81 1032.89 -2121.87C895.46 -2185.08 752.173 -2234.92 606.033 -2270.61C459.688 -2306.4 310.34 -2327.98 160.532 -2334.92C10.7234 -2341.86 -139.3 -2334.42 -287.008 -2312.67C-434.717 -2290.92 -579.906 -2254.76 -720.279 -2205.37C-761.94 -2190.72 -806.196 -2213.6 -820.849 -2255.26C-835.501 -2296.92 -815.16 -2341.62 -773.349 -2356.32C-772.296 -2356.71 -771.394 -2357.03 -770.287 -2357.27L-770.191 -2357.47Z" fill="url(#paint54_linear_1_86)"/>
<path d="M-0.000244141 3000C1656.85 3000 3000 1656.85 3000 -0.000244141C3000 -1656.85 1656.85 -3000 -0.000244141 -3000C-1656.85 -3000 -3000 -1656.85 -3000 -0.000244141C-3000 1656.85 -1656.85 3000 -0.000244141 3000Z" fill="url(#paint55_radial_1_86)" fill-opacity="0.1"/>
</g>
</g>
<defs>
<radialGradient id="paint0_radial_1_86" cx="0" cy="0" r="1" gradientUnits="userSpaceOnUse" gradientTransform="translate(-0.000244141 -0.000244141) scale(3000)">
<stop stop-color="#CF6479"/>
<stop offset="1" stop-color="#EBB6BE"/>
</radialGradient>
<radialGradient id="paint1_radial_1_86" cx="0" cy="0" r="1" gradientUnits="userSpaceOnUse" gradientTransform="translate(-0.000244141 -0.000244141) scale(2000)">
<stop stop-color="#CF6479"/>
<stop offset="1" stop-color="#EBB6BE"/>
</radialGradient>
<radialGradient id="paint2_radial_1_86" cx="0" cy="0" r="1" gradientUnits="userSpaceOnUse" gradientTransform="translate(-0.000244141 -0.000244141) scale(1800)">
<stop stop-color="#CF6479"/>
<stop offset="1" stop-color="#EBB6BE"/>
</radialGradient>
<radialGradient id="paint3_radial_1_86" cx="0" cy="0" r="1" gradientUnits="userSpaceOnUse" gradientTransform="translate(-0.000244141 -0.000244141) scale(1700)">
<stop stop-color="#CF6479"/>
<stop offset="1" stop-color="#EBB6BE"/>
</radialGradient>
<radialGradient id="paint4_radial_1_86" cx="0" cy="0" r="1" gradientUnits="userSpaceOnUse" gradientTransform="translate(-0.000244141 -0.000244141) scale(1651)">
<stop stop-color="#CF6479"/>
<stop offset="1" stop-color="#EBB6BE"/>
</radialGradient>
<radialGradient id="paint5_radial_1_86" cx="0" cy="0" r="1" gradientUnits="userSpaceOnUse" gradientTransform="translate(-0.000244141 -0.000244141) scale(1450)">
<stop stop-color="#CF6479"/>
<stop offset="1" stop-color="#EBB6BE"/>
</radialGradient>
<radialGradient id="paint6_radial_1_86" cx="0" cy="0" r="1" gradientUnits="userSpaceOnUse" gradientTransform="translate(-0.000244141 -0.000244141) scale(1250)">
<stop stop-color="#CF6479"/>
<stop offset="1" stop-color="#EBB6BE"/>
</radialGradient>
<radialGradient id="paint7_radial_1_86" cx="0" cy="0" r="1" gradientUnits="userSpaceOnUse" gradientTransform="translate(-0.000244141 -0.000244141) scale(1175)">
<stop stop-color="#CF6479"/>
<stop offset="1" stop-color="#EBB6BE"/>
</radialGradient>
<radialGradient id="paint8_radial_1_86" cx="0" cy="0" r="1" gradientUnits="userSpaceOnUse" gradientTransform="translate(-0.000244141 -0.000244141) scale(900)">
<stop stop-color="#CF6479"/>
<stop offset="1" stop-color="#EBB6BE"/>
</radialGradient>
<radialGradient id="paint9_radial_1_86" cx="0" cy="0" r="1" gradientUnits="userSpaceOnUse" gradientTransform="translate(-0.000244141 -0.000244141) scale(750)">
<stop stop-color="#CF6479"/>
<stop offset="1" stop-color="#EBB6BE"/>
</radialGradient>
<radialGradient id="paint10_radial_1_86" cx="0" cy="0" r="1" gradientUnits="userSpaceOnUse" gradientTransform="translate(-0.000244141 -0.000244141) scale(500)">
<stop stop-color="#CF6479"/>
<stop offset="1" stop-color="#EBB6BE"/>
</radialGradient>
<radialGradient id="paint11_radial_1_86" cx="0" cy="0" r="1" gradientUnits="userSpaceOnUse" gradientTransform="translate(-0.000244141 -0.000244141) scale(380)">
<stop stop-color="#CF6479"/>
<stop offset="1" stop-color="#EBB6BE"/>
</radialGradient>
<radialGradient id="paint12_radial_1_86" cx="0" cy="0" r="1" gradientUnits="userSpaceOnUse" gradientTransform="translate(-0.000244141 -0.000244141) scale(250)">
<stop stop-color="#CF6479"/>
<stop offset="1" stop-color="#EBB6BE"/>
</radialGradient>
<linearGradient id="paint13_linear_1_86" x1="-84.5724" y1="30.7816" x2="-20.9567" y2="205.564" gradientUnits="userSpaceOnUse">
<stop stop-color="#DD8D9C"/>
<stop offset="1" stop-color="#EBB6BE"/>
</linearGradient>
<linearGradient id="paint14_linear_1_86" x1="-51.3031" y1="140.954" x2="240.002" y2="246.98" gradientUnits="userSpaceOnUse">
<stop stop-color="#DD8D9C"/>
<stop offset="1" stop-color="#EBB6BE"/>
</linearGradient>
<linearGradient id="paint15_linear_1_86" x1="-143.633" y1="120.522" x2="105.447" y2="417.365" gradientUnits="userSpaceOnUse">
<stop stop-color="#DD8D9C"/>
<stop offset="1" stop-color="#EBB6BE"/>
</linearGradient>
<linearGradient id="paint16_linear_1_86" x1="39.0707" y1="221.582" x2="497.006" y2="140.835" gradientUnits="userSpaceOnUse">
<stop stop-color="#DD8D9C"/>
<stop offset="1" stop-color="#EBB6BE"/>
</linearGradient>
<linearGradient id="paint17_linear_1_86" x1="102.606" y1="281.907" x2="685.215" y2="69.855" gradientUnits="userSpaceOnUse">
<stop stop-color="#DD8D9C"/>
<stop offset="1" stop-color="#EBB6BE"/>
</linearGradient>
<linearGradient id="paint18_linear_1_86" x1="-187.5" y1="324.759" x2="483.67" y2="712.259" gradientUnits="userSpaceOnUse">
<stop stop-color="#DD8D9C"/>
<stop offset="1" stop-color="#EBB6BE"/>
</linearGradient>
<linearGradient id="paint19_linear_1_86" x1="-422.862" y1="153.909" x2="-104.783" y2="1027.82" gradientUnits="userSpaceOnUse">
<stop stop-color="#DD8D9C"/>
<stop offset="1" stop-color="#EBB6BE"/>
</linearGradient>
<linearGradient id="paint20_linear_1_86" x1="-179.561" y1="493.338" x2="840.006" y2="864.43" gradientUnits="userSpaceOnUse">
<stop stop-color="#DD8D9C"/>
<stop offset="1" stop-color="#EBB6BE"/>
</linearGradient>
<linearGradient id="paint21_linear_1_86" x1="313.125" y1="542.348" x2="1433.98" y2="-104.777" gradientUnits="userSpaceOnUse">
<stop stop-color="#DD8D9C"/>
<stop offset="1" stop-color="#EBB6BE"/>
</linearGradient>
<linearGradient id="paint22_linear_1_86" x1="-517.08" y1="433.881" x2="379.609" y2="1502.51" gradientUnits="userSpaceOnUse">
<stop stop-color="#DD8D9C"/>
<stop offset="1" stop-color="#EBB6BE"/>
</linearGradient>
<linearGradient id="paint23_linear_1_86" x1="-451.692" y1="645.082" x2="881.478" y2="1578.58" gradientUnits="userSpaceOnUse">
<stop stop-color="#DD8D9C"/>
<stop offset="1" stop-color="#EBB6BE"/>
</linearGradient>
<linearGradient id="paint24_linear_1_86" x1="-278.115" y1="855.951" x2="1490.85" y2="1430.72" gradientUnits="userSpaceOnUse">
<stop stop-color="#DD8D9C"/>
<stop offset="1" stop-color="#EBB6BE"/>
</linearGradient>
<linearGradient id="paint25_linear_1_86" x1="765.853" y1="642.627" x2="2093.95" y2="-940.136" gradientUnits="userSpaceOnUse">
<stop stop-color="#DD8D9C"/>
<stop offset="1" stop-color="#EBB6BE"/>
</linearGradient>
<linearGradient id="paint26_linear_1_86" x1="371.947" y1="1021.92" x2="2483.91" y2="253.225" gradientUnits="userSpaceOnUse">
<stop stop-color="#DD8D9C"/>
<stop offset="1" stop-color="#EBB6BE"/>
</linearGradient>
<linearGradient id="paint27_linear_1_86" x1="-410.424" y1="1127.63" x2="1920.01" y2="1975.84" gradientUnits="userSpaceOnUse">
<stop stop-color="#DD8D9C"/>
<stop offset="1" stop-color="#EBB6BE"/>
</linearGradient>
<linearGradient id="paint28_linear_1_86" x1="-114.907" y1="-96.4184" x2="-314.171" y2="141.055" gradientUnits="userSpaceOnUse">
<stop stop-color="#DD8D9C"/>
<stop offset="1" stop-color="#EBB6BE"/>
</linearGradient>
<linearGradient id="paint29_linear_1_86" x1="-64.1288" y1="-176.193" x2="-428.26" y2="-43.6598" gradientUnits="userSpaceOnUse">
<stop stop-color="#DD8D9C"/>
<stop offset="1" stop-color="#EBB6BE"/>
</linearGradient>
<linearGradient id="paint30_linear_1_86" x1="-221.582" y1="-39.0711" x2="-302.328" y2="418.864" gradientUnits="userSpaceOnUse">
<stop stop-color="#DD8D9C"/>
<stop offset="1" stop-color="#EBB6BE"/>
</linearGradient>
<linearGradient id="paint31_linear_1_86" x1="-300" y1="-0.000305176" x2="-300" y2="620" gradientUnits="userSpaceOnUse">
<stop stop-color="#DD8D9C"/>
<stop offset="1" stop-color="#EBB6BE"/>
</linearGradient>
<linearGradient id="paint32_linear_1_86" x1="-241.045" y1="-287.267" x2="-834.73" y2="210.893" gradientUnits="userSpaceOnUse">
<stop stop-color="#DD8D9C"/>
<stop offset="1" stop-color="#EBB6BE"/>
</linearGradient>
<linearGradient id="paint33_linear_1_86" x1="-402.173" y1="-337.464" x2="-1099.6" y2="493.694" gradientUnits="userSpaceOnUse">
<stop stop-color="#DD8D9C"/>
<stop offset="1" stop-color="#EBB6BE"/>
</linearGradient>
<linearGradient id="paint34_linear_1_86" x1="-616.736" y1="108.747" x2="-391.992" y2="1383.33" gradientUnits="userSpaceOnUse">
<stop stop-color="#DD8D9C"/>
<stop offset="1" stop-color="#EBB6BE"/>
</linearGradient>
<linearGradient id="paint35_linear_1_86" x1="-230.864" y1="-634.293" x2="-1541.73" y2="-157.175" gradientUnits="userSpaceOnUse">
<stop stop-color="#DD8D9C"/>
<stop offset="1" stop-color="#EBB6BE"/>
</linearGradient>
<linearGradient id="paint36_linear_1_86" x1="-451.692" y1="-645.083" x2="-1784.86" y2="288.413" gradientUnits="userSpaceOnUse">
<stop stop-color="#DD8D9C"/>
<stop offset="1" stop-color="#EBB6BE"/>
</linearGradient>
<linearGradient id="paint37_linear_1_86" x1="-709.21" y1="-554.096" x2="-1854.34" y2="911.604" gradientUnits="userSpaceOnUse">
<stop stop-color="#DD8D9C"/>
<stop offset="1" stop-color="#EBB6BE"/>
</linearGradient>
<linearGradient id="paint38_linear_1_86" x1="-865.809" y1="499.875" x2="167.266" y2="2289.21" gradientUnits="userSpaceOnUse">
<stop stop-color="#DD8D9C"/>
<stop offset="1" stop-color="#EBB6BE"/>
</linearGradient>
<linearGradient id="paint39_linear_1_86" x1="-1087.5" y1="-0.000305176" x2="-1087.5" y2="2247.5" gradientUnits="userSpaceOnUse">
<stop stop-color="#DD8D9C"/>
<stop offset="1" stop-color="#EBB6BE"/>
</linearGradient>
<linearGradient id="paint40_linear_1_86" x1="-919.253" y1="-771.345" x2="-2513.37" y2="1128.44" gradientUnits="userSpaceOnUse">
<stop stop-color="#DD8D9C"/>
<stop offset="1" stop-color="#EBB6BE"/>
</linearGradient>
<linearGradient id="paint41_linear_1_86" x1="77.942" y1="44.9998" x2="170.942" y2="-116.081" gradientUnits="userSpaceOnUse">
<stop stop-color="#DD8D9C"/>
<stop offset="1" stop-color="#EBB6BE"/>
</linearGradient>
<linearGradient id="paint42_linear_1_86" x1="140.954" y1="-51.3033" x2="34.9273" y2="-342.608" gradientUnits="userSpaceOnUse">
<stop stop-color="#DD8D9C"/>
<stop offset="1" stop-color="#EBB6BE"/>
</linearGradient>
<linearGradient id="paint43_linear_1_86" x1="184.651" y1="32.5588" x2="251.94" y2="-349.054" gradientUnits="userSpaceOnUse">
<stop stop-color="#DD8D9C"/>
<stop offset="1" stop-color="#EBB6BE"/>
</linearGradient>
<linearGradient id="paint44_linear_1_86" x1="144.627" y1="-172.36" x2="-211.584" y2="-471.256" gradientUnits="userSpaceOnUse">
<stop stop-color="#DD8D9C"/>
<stop offset="1" stop-color="#EBB6BE"/>
</linearGradient>
<linearGradient id="paint45_linear_1_86" x1="150" y1="-259.808" x2="-386.936" y2="-569.808" gradientUnits="userSpaceOnUse">
<stop stop-color="#DD8D9C"/>
<stop offset="1" stop-color="#EBB6BE"/>
</linearGradient>
<linearGradient id="paint46_linear_1_86" x1="369.303" y1="-65.1183" x2="234.725" y2="-828.344" gradientUnits="userSpaceOnUse">
<stop stop-color="#DD8D9C"/>
<stop offset="1" stop-color="#EBB6BE"/>
</linearGradient>
<linearGradient id="paint47_linear_1_86" x1="389.711" y1="225" x2="854.711" y2="-580.404" gradientUnits="userSpaceOnUse">
<stop stop-color="#DD8D9C"/>
<stop offset="1" stop-color="#EBB6BE"/>
</linearGradient>
<linearGradient id="paint48_linear_1_86" x1="493.338" y1="-179.561" x2="122.246" y2="-1199.13" gradientUnits="userSpaceOnUse">
<stop stop-color="#DD8D9C"/>
<stop offset="1" stop-color="#EBB6BE"/>
</linearGradient>
<linearGradient id="paint49_linear_1_86" x1="214.19" y1="-588.483" x2="-1002.01" y2="-1031.14" gradientUnits="userSpaceOnUse">
<stop stop-color="#DD8D9C"/>
<stop offset="1" stop-color="#EBB6BE"/>
</linearGradient>
<linearGradient id="paint50_linear_1_86" x1="664.745" y1="117.212" x2="906.984" y2="-1256.59" gradientUnits="userSpaceOnUse">
<stop stop-color="#DD8D9C"/>
<stop offset="1" stop-color="#EBB6BE"/>
</linearGradient>
<linearGradient id="paint51_linear_1_86" x1="784.503" y1="-68.6355" x2="642.657" y2="-1689.94" gradientUnits="userSpaceOnUse">
<stop stop-color="#DD8D9C"/>
<stop offset="1" stop-color="#EBB6BE"/>
</linearGradient>
<linearGradient id="paint52_linear_1_86" x1="834.465" y1="-337.146" x2="137.697" y2="-2061.71" gradientUnits="userSpaceOnUse">
<stop stop-color="#DD8D9C"/>
<stop offset="1" stop-color="#EBB6BE"/>
</linearGradient>
<linearGradient id="paint53_linear_1_86" x1="543.75" y1="-941.803" x2="-1402.64" y2="-2065.55" gradientUnits="userSpaceOnUse">
<stop stop-color="#DD8D9C"/>
<stop offset="1" stop-color="#EBB6BE"/>
</linearGradient>
<linearGradient id="paint54_linear_1_86" x1="1127.63" y1="-410.424" x2="279.421" y2="-2740.86" gradientUnits="userSpaceOnUse">
<stop stop-color="#DD8D9C"/>
<stop offset="1" stop-color="#EBB6BE"/>
</linearGradient>
<radialGradient id="paint55_radial_1_86" cx="0" cy="0" r="1" gradientUnits="userSpaceOnUse" gradientTransform="translate(-0.000244141 -0.000244141) scale(3000)">
<stop stop-color="#CF6479"/>
<stop offset="1" stop-color="#EBB6BE"/>
</radialGradient>
<clipPath id="clip0_1_86">
<rect width="823" height="1500" fill="white"/>
</clipPath>
<clipPath id="clip1_1_86">
<rect width="2000" height="1500" fill="white"/>
</clipPath>
</defs>
</svg>
